<svg xmlns="http://www.w3.org/2000/svg" viewBox="0 0 132.89 129.18"><defs><style>.cls-1{fill:#e60000;fill-rule:evenodd;}</style></defs><title>Asset 14</title><g id="Layer_2" data-name="Layer 2"><g id="Layer_1-2" data-name="Layer 1"><path class="cls-1" d="M55.71,83.8s2.59,0,2.59,1.29c1.29,1.3,0,3.88,0,3.88s3.88,2.59,3.88,3.88c-1.3,1.29-2.59,3.88-5.17,3.88-1.3,0-9,3.88-11.64,6.46-3.88,1.3-20.68,6.47-24.56,7.76-5.17,0-7.76-1.29-7.76-2.59l3.88-3.87c2.59-1.3,0-2.59,1.29-3.88,0-1.29,0,2.58,5.17,2.58a75.42,75.42,0,0,0,19.4-7.75c5.17-3.88,9.05-5.17,10.34-7.76C53.13,86.39,53.13,83.8,55.71,83.8Z"/><path class="cls-1" d="M51.84,87.68C46.66,76,31.15,74.75,42.79,83.8c0,0,2.58,3.88,3.87,6.47Z"/><path class="cls-1" d="M58.3,109.66,55.71,99.32l-3.87,1.29c1.29,1.29,2.58,3.88,3.87,7.75,0,1.3-1.29,1.3,0,2.59S58.3,111,58.3,109.66Z"/><path class="cls-1" d="M41.49,94.14a22.29,22.29,0,0,0-7.75-7.75c-2.59-2.59-5.17-7.76-5.17-1.3,1.29,5.18,7.75,6.47,10.34,10.35C40.2,95.44,40.2,94.14,41.49,94.14Z"/><path class="cls-1" d="M50.54,116.12c0-1.29-1.29-5.17-1.29-9.05a16.09,16.09,0,0,1-2.59-3.88c-1.29,1.3-1.29,1.3-3.87,2.59,1.29,1.29,1.29,1.29,1.29,2.58,2.58,3.88,2.58,7.76,3.88,9S50.54,116.12,50.54,116.12Z"/><path class="cls-1" d="M103.09,22.18c2.59-2.59-2.58-7.76-3.88-11.64-2.58-3.87,0-9-2.58-10.34S90.16,4.08,85,8c-5.17,5.17-62,22-65.93,22-3.88,1.29-12.93-3.88-16.8-2.59-3.88,2.59-2.59,9,2.58,10.34s0,5.17,0,7.76c0,3.88,7.76,9,11.64,5.17,5.17-3.88,9.05-12.93,11.63-14.22,2.59,0,54.3-19.39,59.47-16.81C91.46,19.59,94,27.35,103.09,22.18Z"/><path class="cls-1" d="M132.37,29.39c-1.29-3.88-7.75,0-11.63,0S113,25.51,110.4,26.81c-2.59,2.58,1.29,7.75,3.87,14.22S113,107,111.69,110.84c0,3.88-9,10.34-7.76,14.22,1.3,5.17,7.76,5.17,10.34,1.29s3.88,1.29,7.76,2.59c2.59,1.29,10.34-2.59,7.76-9s-9-12.93-9-15.52,1.29-58.17,3.88-62C127.2,39.73,135,38.44,132.37,29.39Z"/></g></g></svg>