<svg xmlns="http://www.w3.org/2000/svg" viewBox="0 0 177.82 121.23"><defs><style>.cls-1{fill:#e60000;}</style></defs><title>Asset 10</title><g id="Layer_2" data-name="Layer 2"><g id="Layer_1-2" data-name="Layer 1"><path class="cls-1" d="M0,20.88C.32,18.78,2,5.65,10.7,1.44S27.58,3.55,28.58,3.89,30.72,5.07,29.92,6a62.52,62.52,0,0,0-4,5.94,3.06,3.06,0,0,1-3.45,1c-1.46-.43-4.79-2.61-7.79-.68S11.19,20.52,11,21.75,9.71,24,7.8,23.81s-5.89-.61-6.34-.71A1.78,1.78,0,0,1,0,20.88Z"/><path class="cls-1" d="M2,28.5c1,0,5.34.06,6.44-.06s4.39.71,4.35,3.09-2.26,3.23-4.66,3-4.81-.61-5.45-.7S.22,28.46,2,28.5Z"/><path class="cls-1" d="M4,40.14c.43,1.29,1.55,6.08,2.28,6s6.19-.45,8.2-1.74,1-3.79.65-4.35-2.49-2.33-4.49-1.63S4,40.14,4,40.14Z"/><path class="cls-1" d="M8.28,49.56c-.85.46,3,7.48,3.54,7.34s6.05-3.11,7.48-3.63.9-3.72-1.16-4.66S10.32,48.43,8.28,49.56Z"/><path class="cls-1" d="M14.52,61.45c.67.75,4.31,5.09,4.84,5.33s4.79-2.3,5.41-3.48a5.19,5.19,0,0,0,0-5.3c-1.29-1.91-2.63-1.25-3.7-.76A34,34,0,0,0,14.52,61.45Z"/><path class="cls-1" d="M23.31,71.11c-.38.43,4.65,5.85,5,6s4.35-6.82,4.64-8.2-2.72-5.81-4.07-4.45S24.18,70.17,23.31,71.11Z"/><path class="cls-1" d="M34.61,7.52c-.41,1-2.17,4.88-2.73,5.83s-1.17,4.29,1,5.24,3.87-.72,4.66-3S39,11,39.17,10.34,35.31,5.89,34.61,7.52Z"/><path class="cls-1" d="M44.38,14.15c1,.93,4.88,3.93,4.5,4.57s-3,5.44-5,6.74S40,24.8,39.67,24.25s-1.08-3.23.38-4.76S44.38,14.15,44.38,14.15Z"/><path class="cls-1" d="M51.16,22c.77-.58,5.55,5.85,5.22,6.26S51,32.45,50,33.54s-3.76-.73-3.76-3S49.29,23.37,51.16,22Z"/><path class="cls-1" d="M59.4,32.58c.41.92,2.84,6,2.84,6.61s-4.08,3.41-5.41,3.49A5.23,5.23,0,0,1,52,40.47c-1.21-2,0-2.91.84-3.68A33.65,33.65,0,0,1,59.4,32.58Z"/><path class="cls-1" d="M64.54,44.58c.55-.17,3.4,6.66,3.37,7.07s-8,1.13-9.38.84-4.16-4.89-2.36-5.56S63.33,45,64.54,44.58Z"/><path class="cls-1" d="M38.78,85.87c.24.77,3.94,6.12,4.12,6.39S45.11,89.8,46.56,89s4.29-2.3,2.5-5.17-2.75-2.65-4-2S38.78,85.87,38.78,85.87Z"/><path class="cls-1" d="M44.54,95c.41.65,3.1,4.42,3.64,4.46s7.79-5.4,6.31-8.11S44.54,95,44.54,95Z"/><path class="cls-1" d="M50.86,102.2l3.71,2.72s6.35-6.83,3.75-8.83S50.86,102.2,50.86,102.2Z"/><path class="cls-1" d="M70.86,64.45c.6.52,3.94,6.11,4.11,6.38s-3.16,1-4.49,2-3.87,3-5.75.13-1.27-3.6-.1-4.49S70.86,64.45,70.86,64.45Z"/><path class="cls-1" d="M76.78,73.47c.43.64,2.75,4.65,2.56,5.17s-8.14,4.85-10,2.37S76.78,73.47,76.78,73.47Z"/><path class="cls-1" d="M80.72,82.21l.93,4.5s-8.84,2.94-9.59-.24S80.72,82.21,80.72,82.21Z"/><path class="cls-1" d="M61.73,98.74s4.2.83,6.8-.83,4.64-7.45,4.64-7.45,8.1-.49,9.22,0,1.53,9.62-7.09,15.16-16.45,2.08-16.76,1.61S61.43,100.51,61.73,98.74Z"/><circle class="cls-1" cx="50.65" cy="79.28" r="2.2"/><circle class="cls-1" cx="61.72" cy="94.3" r="2.12"/><circle class="cls-1" cx="58.34" cy="74.34" r="2.2"/><circle class="cls-1" cx="55.73" cy="86.52" r="2.2"/><circle class="cls-1" cx="63.42" cy="81.57" r="2.2"/><circle class="cls-1" cx="29.91" cy="47.1" r="2.2"/><circle class="cls-1" cx="37.6" cy="42.16" r="2.2"/><circle class="cls-1" cx="24.83" cy="39.43" r="2.2"/><circle class="cls-1" cx="32.52" cy="34.48" r="2.2"/><circle class="cls-1" cx="17.34" cy="26.72" r="1.27"/><circle class="cls-1" cx="20.58" cy="31.77" r="1.32"/><path class="cls-1" d="M23.61,21.2a1.27,1.27,0,1,1-.68,1.66A1.28,1.28,0,0,1,23.61,21.2Z"/><circle class="cls-1" cx="27.35" cy="27.41" r="1.32"/><circle class="cls-1" cx="38.42" cy="30.08" r="1.32"/><circle class="cls-1" cx="18.86" cy="43.67" r="1.32"/><circle class="cls-1" cx="45.34" cy="37.84" r="1.32"/><circle class="cls-1" cx="22.65" cy="52.73" r="1.32"/><circle class="cls-1" cx="67.42" cy="90.63" r="2.12"/><path class="cls-1" d="M100,29.1c.44-2.07,3-15,12-18.66s16.69,3.27,17.67,3.67,2,1.32,1.19,2.17a63.6,63.6,0,0,0-4.44,5.65,3.07,3.07,0,0,1-3.52.8c-1.42-.53-4.59-2.94-7.72-1.22s-4,8-4.29,9.21-1.43,2.18-3.32,1.83-5.84-1-6.28-1.13A1.79,1.79,0,0,1,100,29.1Z"/><path class="cls-1" d="M101.41,36.84c1,.1,5.32.42,6.43.38s4.33,1,4.13,3.39-2.48,3-4.86,2.66-4.75-.93-5.39-1.06S99.65,36.68,101.41,36.84Z"/><path class="cls-1" d="M102.6,48.59c.34,1.32,1.12,6.17,1.86,6.14s6.2,0,8.31-1.18,1.26-3.71.94-4.29-2.32-2.49-4.37-1.93S102.6,48.59,102.6,48.59Z"/><path class="cls-1" d="M106.24,58.28c-.88.4,2.51,7.67,3,7.57s6.25-2.69,7.72-3.11,1.15-3.65-.83-4.73S108.36,57.3,106.24,58.28Z"/><path class="cls-1" d="M111.65,70.57c.61.8,3.95,5.37,4.46,5.65s4.94-2,5.64-3.1a5.21,5.21,0,0,0,.36-5.29c-1.17-2-2.55-1.42-3.64-1A33.38,33.38,0,0,0,111.65,70.57Z"/><path class="cls-1" d="M119.76,80.82c-.42.4,4.23,6.15,4.61,6.32s4.81-6.5,5.2-7.85-2.32-6-3.76-4.72S120.68,79.93,119.76,80.82Z"/><path class="cls-1" d="M135.4,18.15c-.48.92-2.5,4.72-3.13,5.63s-1.46,4.2.65,5.3,3.91-.46,4.86-2.67,1.75-4.52,2-5.13S136.21,16.57,135.4,18.15Z"/><path class="cls-1" d="M144.69,25.44c.92,1,4.6,4.25,4.18,4.86s-3.34,5.23-5.44,6.39-3.81-.93-4.13-1.5-.86-3.3.71-4.73S144.69,25.44,144.69,25.44Z"/><path class="cls-1" d="M150.92,33.7c.81-.52,5.13,6.23,4.78,6.61s-5.62,3.85-6.77,4.85-3.69-1-3.54-3.23S149,35,150.92,33.7Z"/><path class="cls-1" d="M158.41,44.85c.34.95,2.41,6.21,2.38,6.8s-4.3,3.12-5.64,3.1a5.22,5.22,0,0,1-4.66-2.53c-1.06-2,.16-2.91,1.1-3.62A33.18,33.18,0,0,1,158.41,44.85Z"/><path class="cls-1" d="M162.71,57.18c.56-.13,2.93,6.88,2.88,7.29s-8.08.58-9.42.18-3.82-5.16-2-5.7S161.47,57.49,162.71,57.18Z"/><path class="cls-1" d="M134.18,96.61c.18.78,3.5,6.36,3.66,6.65s2.38-2.3,3.88-3,4.44-2,2.85-5S142,92.43,140.67,93,134.18,96.61,134.18,96.61Z"/><path class="cls-1" d="M139.29,106.11c.36.68,2.79,4.63,3.33,4.7s8.14-4.85,6.85-7.66S139.29,106.11,139.29,106.11Z"/><path class="cls-1" d="M145.1,113.72l3.52,3s6.8-6.37,4.35-8.55S145.1,113.72,145.1,113.72Z"/><path class="cls-1" d="M167.65,77.44c.57.56,3.51,6.36,3.67,6.65s-3.23.77-4.62,1.66-4.07,2.68-5.74-.26-1-3.68.2-4.49S167.65,77.44,167.65,77.44Z"/><path class="cls-1" d="M172.94,86.85c.39.67,2.42,4.82,2.19,5.33s-8.45,4.27-10.13,1.68S172.94,86.85,172.94,86.85Z"/><path class="cls-1" d="M176.26,95.83l.62,4.55s-9,2.34-9.54-.9S176.26,95.83,176.26,95.83Z"/><path class="cls-1" d="M156.19,111s4.13,1.12,6.83-.37,5.14-7.1,5.14-7.1,8.12.06,9.21.6.86,9.7-8.12,14.64-16.56.94-16.83.45S155.76,112.77,156.19,111Z"/><circle class="cls-1" cx="146.47" cy="90.85" r="2.2"/><circle class="cls-1" cx="156.48" cy="106.59" r="2.12"/><circle class="cls-1" cx="154.48" cy="86.44" r="2.2"/><circle class="cls-1" cx="151.04" cy="98.41" r="2.2"/><circle class="cls-1" cx="159.05" cy="94" r="2.2"/><circle class="cls-1" cx="127.99" cy="57.32" r="2.2"/><circle class="cls-1" cx="136.01" cy="52.91" r="2.2"/><circle class="cls-1" cx="123.45" cy="49.31" r="2.2"/><circle class="cls-1" cx="131.46" cy="44.91" r="2.2"/><circle class="cls-1" cx="116.85" cy="36.12" r="1.27"/><circle class="cls-1" cx="119.74" cy="41.37" r="1.32"/><path class="cls-1" d="M123.49,31a1.27,1.27,0,1,1-.79,1.61A1.27,1.27,0,0,1,123.49,31Z"/><circle class="cls-1" cx="126.79" cy="37.5" r="1.32"/><circle class="cls-1" cx="137.65" cy="40.92" r="1.32"/><circle class="cls-1" cx="117.2" cy="53.13" r="1.32"/><circle class="cls-1" cx="144.02" cy="49.14" r="1.32"/><circle class="cls-1" cx="120.36" cy="62.43" r="1.32"/><circle class="cls-1" cx="162.42" cy="103.32" r="2.12"/></g></g></svg>