<svg xmlns="http://www.w3.org/2000/svg" viewBox="0 0 2881.65 1213.47"><defs><style>.cls-1{fill:#ffa63f;}.cls-2{fill:#f0904d;}</style></defs><title>Asset 9</title><g id="Layer_2" data-name="Layer 2"><g id="background"><polygon class="cls-1" points="0 17.33 412.53 24.41 561.43 23.02 736.99 25.09 768.69 26.08 1127.26 32.86 1172.29 31.89 1173.51 31.59 1175.31 31.93 2570.25 54.83 2881.65 55.49 2878.83 1213.47 0 1213.47 0 17.33"/><path class="cls-2" d="M2255.35,548.16c-141.13-6.29-283.43-8.4-424.72-2.13-76.44,3.39-146.67,7.3-217,24.53-34.29,8.39-64,20.05-102.1,24.15-81.57,8.79-164,16.82-247.59,18.33-70.07,1.26-133.07-2.22-201.78-7.17-13.08-.94-26.39-.25-39.6-.37-39.74-.36-78.62-11.68-118-10.21l-58,2.17c-49.43,11.62-97.26,22.73-148.53,32.69-10,2-20.1,3.91-30,6h0c-13.5,2.84-26.77,5.93-39.42,9.61-56.36,16.41-115.36,27.23-173,43.15C362,714.74,295.15,756.82,234,799.38A2224.49,2224.49,0,0,1,31.64,925.1l2709.2-328.6c-91.41-14-177.52-29.56-273.59-36.13C2396.8,555.55,2326.18,551.32,2255.35,548.16Z" transform="translate(0 0)"/><path class="cls-2" d="M2879.58,579.68l-14.07,1.7C2870.36,580.83,2875.08,580.27,2879.58,579.68Z" transform="translate(0 0)"/><path class="cls-2" d="M2865.51,581.38c-11,1.25-22.57,2.5-33.84,4.11Z" transform="translate(0 0)"/><path class="cls-2" d="M2756.24,598.85,2300,681l42.74,4.57L2469.18,696l105.39-3.94,34.26-14.44h65.87l52.7-5.25L2772.19,654l44.8-17.86V615.93l-12.7-25.29a264.74,264.74,0,0,1,27.38-5.15l-90.83,11Z" transform="translate(0 0)"/><path class="cls-2" d="M1863.83,761.82l-42.37,10.56-168.33,7.92h-243.2l-47.18,18.43-148.82,22.94-141.56,10.85L941.7,854.23,847.32,879l-144.48,43.7L64.64,959.24H486.51l97.41-8h0l203-15.3H907.25L1140.72,942l257.86-1.74L1531,935.91h115l120.22,5.21,108,.87,125.45-1.74,50.52-4.34L2144.29,909l38.33-6.07,52.27-15.63,34.84-12.16c6.51-3.89,13.46-10.19,21.74-13,22.22-7.57,68.76-2.61,95-2.61h69.72l101.05-25.18a1141.54,1141.54,0,0,1,122.7-24.86l-898.7,51.47L2850.59,780.3l-77-9.9h-75.48l-103.3-7.26H2377.66l-88.72,2.64-192-14.52-60.92-9.9-31.78-7.17-33.11,3.21Z" transform="translate(0 0)"/><path class="cls-2" d="M2687.05,808.46l-7.14,1,187.43-10.73C2807.82,798.73,2744.67,800.66,2687.05,808.46Z" transform="translate(0 0)"/><polygon class="cls-2" points="2224.13 677.65 2176.7 677.65 2124 684.21 2052.85 710.48 2004.21 734.19 2299.96 680.96 2268.92 677.65 2224.13 677.65"/><polygon class="cls-2" points="105.85 1172.26 249.58 1182.1 472.35 1185.68 644.82 1187.48 835.33 1174.67 31.64 1165.99 105.85 1172.26"/><polygon class="cls-2" points="835.33 1174.67 2850.59 1196.43 2452.17 1169.57 2004.21 1157.04 1665.27 1157.04 1327.52 1148.08 1173.51 1160.62 1022.1 1172.26 939.46 1172.26 871.19 1172.26 835.33 1174.67"/><polygon class="cls-2" points="2527.63 981.56 2606.68 981.56 2671.35 972.61 2746.81 951.21 2816.99 925.1 2879.58 909.94 2349.85 981.56 2430.61 981.56 2527.63 981.56"/><polygon class="cls-2" points="2312.04 981.56 2218.62 995.89 2121.6 995.89 2046.15 995.89 2004.21 995.89 1916.79 1017.37 1830.56 1040.65 1690.43 1062.14 1550.29 1062.14 1388.6 1062.14 1259.25 1078.25 1173.51 1103.32 1065.22 1131.97 993.36 1157.04 939.46 1172.26 2349.85 981.56 2312.04 981.56"/><polygon class="cls-2" points="217.24 628.82 120.22 610.92 31.64 610.92 455.43 688.92 393.3 675.38 296.29 650.31 217.24 628.82"/><path class="cls-2" d="M861.78,539.09c-22.15-3.83-45.25-8.79-68.22-11.2-32.25-3.39-64.76.83-97.56.83-2.58,0-5.52-.08-7.2-1.06a2.93,2.93,0,0,1-1.38-3.1c.26-5.58-2.92-14.54,1.49-19.75,1.66-2,5.39-3.28,8.93-4.48,26.32-8.94,42.74-15.73,56.68-30.37-2.45,2.57-90.83-.49-102.5-.5-7.6-.24-23.89-24.14-28.85-28-11.38-9-26.31-17.21-39.25-25.67-16.87-11-185.7,20.28-215.1,22.39C284,444.23,198,440.73,113,437.23l-48.4-7.16,908,170.29c-.1-10.12.1-20.24.22-30.36C973.12,549,893,544.48,861.78,539.09Z" transform="translate(0 0)"/><polygon class="cls-2" points="1645.62 391.86 1676.54 392.16 1654.59 391.04 1645.62 391.86"/><polygon class="cls-2" points="191.17 376.57 64.64 376.57 364.13 379.47 331.86 376.57 191.17 376.57"/><polygon class="cls-2" points="518.65 393.34 683.6 393.34 825.95 410.97 972.67 402.48 1075.09 402.48 1197.43 393.77 1267.78 393.77 1465.99 410.97 1546.11 402.48 1624.74 393.77 1645.62 391.86 364.13 379.47 518.65 393.34"/><polygon class="cls-2" points="2060.83 396.62 2098.36 396.24 2050.85 395.78 2060.83 396.62"/><polygon class="cls-2" points="2015.88 395.44 2050.85 395.78 2026.76 393.77 2015.88 395.44"/><polygon class="cls-2" points="1972.97 396.62 2004.21 397.24 2015.88 395.44 1932.26 394.63 1972.97 396.62"/><polygon class="cls-2" points="1708.07 393.77 1756.57 393.77 1842.39 393.77 1878.45 397.24 1907.97 394.4 1676.54 392.16 1708.07 393.77"/><polygon class="cls-2" points="1907.97 394.4 1932.26 394.63 1914.52 393.77 1907.97 394.4"/><polygon class="cls-2" points="2619.32 401.28 2584.46 400.94 2589.29 401.28 2619.32 401.28"/><polygon class="cls-2" points="2658.16 401.28 2619.32 401.28 2674.87 401.82 2658.16 401.28"/><polygon class="cls-2" points="2782.98 404.5 2816.99 403.42 2841.09 403.42 2674.87 401.82 2724.87 403.42 2782.98 404.5"/><polygon class="cls-2" points="1411.49 425.69 1364.31 402.73 1428.18 434.97 1426.47 433.15 1411.49 425.69"/><polygon class="cls-2" points="1440.47 448.08 1467.33 468.44 1490.47 484.72 1536.77 492.19 1570.82 508.05 1592.6 529.51 1629.37 537.65 1633.31 538.51 1428.18 434.97 1440.47 448.08"/><polygon class="cls-2" points="1633.31 538.51 1672.22 558.14 1666.14 549.87 1655.24 543.28 1633.31 538.51"/><polygon class="cls-2" points="1768.54 548.78 1865.95 524.77 1917.31 524.77 1974.37 524.77 2031.43 503.84 2059.96 493.49 2088.49 480.44 2134.14 470.74 2156.95 454.07 2166.28 449.42 2178.71 449.42 2192.18 441.68 2203.59 429.28 2208.77 419.47 2219.13 408.63 2229.49 398.3 2231.05 397.52 2584.46 400.94 2481.69 393.77 2425.73 399.13 2359.07 387.92 2338.3 388.33 2294.27 393.77 2258.55 391.23 2244 391.12 2244 391.12 2244 391.12 2203.72 390.82 2158.03 393.77 2102.36 396.2 2098.36 396.24 2224.88 397.46 1768.54 548.78"/><polygon class="cls-2" points="1440.47 219.03 1440.47 197.87 1411.23 197.87 1385.5 197.87 1353.83 205.76 1308.31 224.5 1258.83 231.4 1237.06 231.4 1197.48 231.4 1180.73 236.91 1450.51 222.01 1440.47 219.03"/><path class="cls-2" d="M1483.75,232l27,2.4,31.8,1h33.73l24.1-2.4,11.56-1.92,28-1,36.62.48,28-4.32,16.39-4.81,18.31-11.52,11.56-.48,17.83,5.76,103.61,27.17,12.53,4,13.49,1.92,81.81,3.84,57.63,2.87h106.61l77.8-2.87,74.91-17.23,69.15-14.36,86.44-22.71h57.63l63.39,8.35,34.58-14.36,83.56-23H2758l59-8.61,62.59-17.23-1060.71,58.6c-11.33-6.56-23.64-12.93-37.06-19.47-34.4-16.74-64.89-19.15-112-12.37-7.72,1.11-15.74,1.92-24,2.5l106.62,33-302,16.69,15.89,4.71Z" transform="translate(0 0)"/><polygon class="cls-2" points="1122.27 239.29 1118.94 240.33 1137.73 239.29 1122.27 239.29"/><polygon class="cls-2" points="455.43 269.86 370.19 267.89 302.9 263.72 243.54 263.72 165.33 276.33 85.74 286.84 43.3 299.76 520.78 273.38 455.43 269.86"/><polygon class="cls-2" points="1180.73 236.91 1137.73 239.29 1173.51 239.29 1180.73 236.91"/><polygon class="cls-2" points="637.38 275.28 700.71 275.28 756.13 263.72 819.46 263.72 874.88 275.28 930.29 275.28 981.75 263.72 1021.33 263.72 1070.81 263.72 1090.6 249.15 1118.94 240.33 520.78 273.38 556.23 275.28 637.38 275.28"/><polygon class="cls-2" points="942.7 48.82 1060.83 47.55 1138.63 40.2 1172.31 31.89 768.71 26.09 801.51 40.2 942.7 48.82"/><polygon class="cls-2" points="738.12 12.92 686.25 0 643.03 0 583.92 21.54 560.36 23.09 768.71 26.09 738.12 12.92"/><polygon class="cls-2" points="124.39 24.41 184.9 25.84 243.54 38.77 291.51 33.02 334.73 34.46 380.83 45.23 412.53 24.41 467.27 25.84 518.65 25.84 560.36 23.09 52.36 15.79 124.39 24.41"/><polygon class="cls-2" points="1173.51 31.59 1172.31 31.89 1175.32 31.93 1173.51 31.59"/><polygon class="cls-2" points="1276.93 47.38 1305.74 57.43 1364.31 47.38 1412.36 47.38 1457.62 56 1498.8 56 1542.02 63.18 1591 66.05 1645.74 73.23 1717.26 78.97 1801.34 78.97 1830.15 66.05 1870.49 73.23 1905.07 73.23 1919.47 56 1982.86 73.23 2034.73 73.23 2063.54 73.23 2106.76 73.23 2167.27 73.23 2207.61 73.23 2273.88 73.23 2325.74 73.23 2354.56 83.28 2410.6 90.46 2489.98 90.46 2553.37 83.28 2619.64 76.1 2665.74 61.74 2726.25 56 2769.47 56 2798.29 56 2850.59 56 1175.32 31.93 1219.31 40.2 1276.93 47.38"/><path class="cls-2" d="M403.86,123.72l27.28,19.33,34.56,22.36h69.12l38.2,9.07,52.75,8.16,61.84,8.15h61.85l61.84-5.43L844,170.85l29.1-13.59,34.56,5.43,76.4,23.57,63.66,11.79h54.57l54.56-26.29,47.3-13.6,63.66-23.56,20-15.41,17.89-9.17L786,103.16l-69.22-43-5.32,11.25c-1.91,4-9.32,10.76-3.9,14.6,4,2.84,9.15,5.24,14.19,7.63A84.38,84.38,0,0,0,741,100.22l11.2,2.5-371.41-4.9Z" transform="translate(0 0)"/><path class="cls-2" d="M1456.58,160.37c13.74,13,37.29,12.41,67.85,12.41,38.87,0,82.48,2.31,121.46-.47L1412.26,100C1429.29,119.36,1437,141.83,1456.58,160.37Z" transform="translate(0 0)"/><polygon class="cls-2" points="1282.81 362.6 1412.36 369.71 1518.26 376.57 1617.76 376.57 1768.54 360.83 1934.9 334.19 1981.16 327.97 1087.6 332.57 1126.02 338.17 1282.81 362.6"/><polygon class="cls-2" points="1001.3 319.99 843.29 312.88 667.85 311.11 455.43 314.66 203.11 309.33 0 338.17 1087.6 332.57 1001.3 319.99"/><polygon class="cls-2" points="2704.58 323.54 2533.54 323.54 2348.25 323.54 2227.09 299.76 2102.38 311.65 1981.16 327.97 2841.09 323.54 2704.58 323.54"/></g></g></svg>