<svg xmlns="http://www.w3.org/2000/svg" viewBox="0 0 204.55 147.96"><defs><style>.cls-1{fill:#e60000;}.cls-2{fill:#ffa63f;}</style></defs><title>Asset 11</title><g id="Layer_2" data-name="Layer 2"><g id="Layer_1-2" data-name="Layer 1"><path class="cls-1" d="M203.67,142.11,105.8,30.27V21h10.57a3.53,3.53,0,0,0,2.47-6L104.74.94A3.51,3.51,0,0,0,103.12.1a3.44,3.44,0,0,0-4.37,3.31V30.27L.88,142.11A3.53,3.53,0,0,0,3.56,148H96.45l4.64-113a3.52,3.52,0,0,1-2.34-3.31h7A3.52,3.52,0,0,1,103.33,35L108,148h93a3.52,3.52,0,0,0,2.68-5.85Z"/><path class="cls-1" d="M103.26,33.38l.07,1.58a3.52,3.52,0,0,0,2.47-3.35h-7a3.52,3.52,0,0,0,2.34,3.31l.06-1.54Z"/><path class="cls-2" d="M103.33,35l-.07-1.58h-2.11l-.06,1.54a3.58,3.58,0,0,0,1.18.22A3.42,3.42,0,0,0,103.33,35Z"/></g></g></svg>